<!DOCTYPE svg PUBLIC "-//W3C//DTD SVG 1.1//EN" "http://www.w3.org/Graphics/SVG/1.1/DTD/svg11.dtd">
<svg version="1.1" id="Icons" xmlns="http://www.w3.org/2000/svg" xmlns:xlink="http://www.w3.org/1999/xlink" viewBox="0 0 32 32" xml:space="preserve" width="64px" height="64px" fill="#0307fc" stroke="#0307fc">

  <g id="SVGRepo_bgCarrier" stroke-width="0"/>

  <g id="SVGRepo_tracerCarrier" stroke-linecap="round" stroke-linejoin="round" stroke="#0307fc" stroke-width="0.256"/>

  <g id="SVGRepo_iconCarrier"> 
    <style type="text/css"> 
      .st0{fill:none;stroke:#ffffff;stroke-width:2;stroke-linecap:round;stroke-linejoin:round;stroke-miterlimit:10;} 
    </style> 
    
    <!-- Head shape -->
    <path d="M16,2C9.9,2,5,6.9,5,13v15.1c0,0.4,0.2,0.8,0.6,0.9c0.4,0.2,0.8,0.1,1.1-0.2l0.7-0.6c0.4-0.3,0.9-0.3,1.3,0 
      c1.1,1.1,2.9,1.1,4,0c0.4-0.3,0.9-0.3,1.3,0c1.1,1.1,2.9,1.1,4,0c0.4-0.3,0.9-0.3,1.3,0c1.1,1.1,2.9,1.1,4,0
      c0.4-0.3,0.9-0.3,1.3,0l0.7,0.6c0.2,0.2,0.4,0.3,0.7,0.3c0.1,0,0.3,0,0.4-0.1c0.4-0.2,0.6-0.5,0.6-0.9V13C27,6.9,22.1,2,16,2z"/>
    
    <!-- Eyes -->
    <circle cx="13" cy="15" r="2" fill="white"/> <!-- Left Eye -->
    <circle cx="19" cy="15" r="2" fill="white"/> <!-- Right Eye -->
    
    <!-- Scared mouth -->
    <ellipse cx="16" cy="21" rx="3" ry="4" fill="white"/> <!-- Mouth -->
  </g>
</svg>